<svg width="24" height="24" viewBox="0 0 24 24" fill="none" xmlns="http://www.w3.org/2000/svg">
<path d="M16 14V14.5M11.25 16.25H12.75L12 17L11.25 16.25Z" stroke="black" stroke-width="2" stroke-linecap="round" stroke-linejoin="round"/>
<path d="M4.42 11.2461C4.14064 12.3269 3.99952 13.4388 4 14.5551C4 18.7271 7.582 20.9991 12 20.9991C16.418 20.9991 20 18.7271 20 14.5551C19.995 13.4342 19.829 12.3198 19.507 11.2461M8 13.9991V14.4991" stroke="black" stroke-width="2" stroke-linecap="round" stroke-linejoin="round"/>
<path d="M8.499 8.49899C8.115 9.54899 7.41601 10.527 6.155 10.999C4.224 11.721 2.579 10.702 2.499 9.99899C2.386 9.00499 3.676 3.46899 6.499 2.99899C8.422 2.67799 10.15 3.84399 10.15 5.23399C11.4148 4.91291 12.7415 4.92739 13.999 5.27599C13.999 3.88599 15.843 2.67799 17.766 2.99899C20.589 3.46899 21.879 9.00499 21.766 9.99899C21.686 10.702 20.041 11.721 18.11 10.999C16.849 10.527 16.255 9.54899 15.871 8.49899" stroke="black" stroke-width="2" stroke-linecap="round" stroke-linejoin="round"/>
</svg>
