<svg width="24" height="24" viewBox="0 0 24 24" fill="none" xmlns="http://www.w3.org/2000/svg">
<path d="M15.5466 13.7617V14.2033M11.3516 15.7488H12.6763L12.0139 16.4112L11.3516 15.7488Z" stroke="#F6339A" stroke-width="1.5" stroke-linecap="round" stroke-linejoin="round"/>
<path d="M5.32015 11.332C5.07343 12.2866 4.94879 13.2685 4.94922 14.2544C4.94922 17.939 8.1127 19.9455 12.0145 19.9455C15.9163 19.9455 19.0798 17.939 19.0798 14.2544C19.0754 13.2645 18.9288 12.2803 18.6444 11.332M8.48186 13.7634V14.205" stroke="#F6339A" stroke-width="1.5" stroke-linecap="round" stroke-linejoin="round"/>
<path d="M8.92217 8.90479C8.58304 9.83211 7.96571 10.6958 6.85204 11.1127C5.14666 11.7503 3.69386 10.8504 3.62321 10.2295C3.52341 9.35167 4.66269 4.46249 7.15585 4.04741C8.85417 3.76391 10.3803 4.79368 10.3803 6.02127C11.4973 5.73771 12.669 5.75049 13.7796 6.05837C13.7796 4.83077 15.4081 3.76391 17.1064 4.04741C19.5996 4.46249 20.7389 9.35167 20.6391 10.2295C20.5684 10.8504 19.1156 11.7503 17.4102 11.1127C16.2966 10.6958 15.772 9.83211 15.4328 8.90479" stroke="#F6339A" stroke-width="1.5" stroke-linecap="round" stroke-linejoin="round"/>
</svg>
